<svg width="48" height="46" viewBox="0 0 48 46" fill="none" xmlns="http://www.w3.org/2000/svg">
<path fill-rule="evenodd" clip-rule="evenodd" d="M47.4865 8.86131L43.2045 15.3777L47.5076 22.9195C47.6506 23.168 47.6849 23.4633 47.6052 23.7376C47.5266 24.0119 47.3388 24.2424 47.0862 24.3764L43.0173 26.5369V34.5888C43.0173 34.9807 42.801 35.3389 42.456 35.5224L24.3136 45.1509C24.1585 45.2332 23.9882 45.2743 23.8183 45.2743C23.6485 45.2743 23.4776 45.2332 23.323 45.1509L5.18008 35.5224C4.83511 35.3389 4.61885 34.9802 4.61885 34.5888V26.5417L0.573663 24.3938C0.321004 24.2609 0.133224 24.0288 0.0535755 23.754C-0.0255454 23.4797 0.00926779 23.1854 0.151158 22.9359L4.46008 15.3877L0.173312 8.86501C0.00399306 8.60654 -0.0440069 8.28742 0.0414436 7.99046C0.126894 7.69402 0.338411 7.44927 0.619554 7.32162L10.1689 2.98843C10.7027 2.74685 11.3267 2.98263 11.5678 3.5138C11.8094 4.04549 11.5736 4.6716 11.0424 4.91318L2.61867 8.73577L6.06465 13.9783L9.63564 12.2661C10.1636 12.0124 10.794 12.2361 11.0466 12.762C11.2993 13.2884 11.0772 13.9198 10.5503 14.1719L8.01314 15.3888L22.7628 23.3304V22.1642H24.8764V23.3246L39.6335 15.3793L36.7968 14.0189C36.2698 13.7668 36.0478 13.1349 36.3004 12.6085C36.5531 12.0826 37.1834 11.8595 37.7109 12.1127L41.5963 13.9757L45.0454 8.72628L36.7762 4.91054C36.2466 4.6658 36.0151 4.03758 36.2593 3.50747C36.504 2.97683 37.1328 2.74738 37.6618 2.99054L47.0461 7.32109C47.3251 7.45032 47.5351 7.69454 47.6195 7.99046C47.7039 8.28637 47.6553 8.60443 47.4865 8.86131ZM22.3815 25.5258L6.10843 16.7639L2.52742 23.0371L18.8068 31.6803L22.3815 25.5258ZM6.73296 27.6636L18.7145 34.0244C18.8727 34.1088 19.0421 34.1478 19.2093 34.1478C19.5748 34.1478 19.9287 33.9585 20.1244 33.6225L22.7628 29.0783V42.4597L6.73296 33.9532V27.6636ZM24.8764 42.4597L40.9053 33.9532V27.6578L28.9454 34.0075C28.7866 34.0909 28.6173 34.1309 28.4506 34.1309C28.085 34.1309 27.7311 33.9416 27.5354 33.6045L24.8764 29.0218V42.4597ZM28.8525 31.6618L25.2805 25.5073L41.5519 16.7476L45.133 23.0203L28.8525 31.6618ZM23.9624 10.5907C25.8859 10.5907 27.4511 9.02594 27.4511 7.10201C27.4511 5.17809 25.8863 3.61328 23.9624 3.61328C22.0385 3.61328 20.4741 5.17809 20.4741 7.10201C20.4741 9.02594 22.0385 10.5907 23.9624 10.5907ZM23.9624 5.25598C24.9799 5.25598 25.8084 6.0845 25.8084 7.10201C25.8084 8.11953 24.9799 8.94805 23.9624 8.94805C22.9449 8.94805 22.1168 8.11953 22.1168 7.10201C22.1168 6.0845 22.9445 5.25598 23.9624 5.25598Z" fill="black"/>
<path fill-rule="evenodd" clip-rule="evenodd" d="M34.7998 7.63183C32.5622 11.494 28.41 13.8929 23.9623 13.8929C19.5152 13.8929 15.3624 11.494 13.1238 7.63183C12.9339 7.30374 12.9339 6.89969 13.1238 6.57161C15.3635 2.70945 19.5173 0.311035 23.9623 0.311035C28.4073 0.311035 32.5601 2.70945 34.7998 6.57161C34.9891 6.89969 34.9891 7.30374 34.7998 7.63183ZM32.6419 7.10224C30.7203 4.2022 27.4489 2.42462 23.9623 2.42462C20.4752 2.42462 17.2049 4.20167 15.2817 7.10224C17.2038 10.0023 20.4747 11.7799 23.9623 11.7799C27.45 11.7799 30.7203 10.0023 32.6419 7.10224Z" fill="black"/>
<path fill-rule="evenodd" clip-rule="evenodd" d="M23.9623 2.4248C27.4489 2.4248 30.7203 4.20239 32.6419 7.10243C30.7203 10.0025 27.4499 11.7801 23.9623 11.7801C20.4746 11.7801 17.2038 10.0025 15.2817 7.10243C17.2048 4.20186 20.4752 2.4248 23.9623 2.4248Z" fill="#E0E0E0"/>
<path fill-rule="evenodd" clip-rule="evenodd" d="M41.1748 33.9531L25.146 42.4596V29.0218L27.805 33.6044C28.0007 33.9415 28.3546 34.1309 28.7201 34.1309C28.8868 34.1309 29.0561 34.0908 29.2149 34.0074L41.1748 27.6577V33.9531Z" fill="#2AA8F2"/>
<path d="M27.9052 37.7944C28.0808 38.1857 28.4659 38.4189 28.8694 38.4189C29.0144 38.4189 29.1616 38.3888 29.3019 38.3261L33.941 36.2431C34.4738 36.0031 34.7117 35.3775 34.4727 34.8453C34.2338 34.3136 33.6066 34.0767 33.0749 34.3146L28.4358 36.3976C27.9041 36.6366 27.6662 37.2621 27.9052 37.7944Z" fill="black"/>
<rect x="23.0323" y="15.0752" width="2.11358" height="2.21222" fill="black"/>
<rect x="23.0323" y="18.3438" width="2.11358" height="2.76448" fill="black"/>
</svg>
