<svg width="48" height="49" viewBox="0 0 48 49" fill="none" xmlns="http://www.w3.org/2000/svg">
<path fill-rule="evenodd" clip-rule="evenodd" d="M35.4285 2.28564C41.1227 2.28564 45.7143 6.87714 45.7143 12.5714C45.7143 18.2655 41.1227 22.8571 35.4285 22.8571H25.1428V12.5714C25.1428 6.87714 29.7344 2.28564 35.4285 2.28564Z" fill="#2AA8F2"/>
<path fill-rule="evenodd" clip-rule="evenodd" d="M12.5759 30.8618C13.2288 30.8618 13.7143 31.3473 13.7143 32.0002V44.5694C13.7143 45.2223 13.2288 45.7167 12.5759 45.7167C11.923 45.7167 11.4286 45.2223 11.4286 44.5694V32.0002C11.4286 31.3473 11.923 30.8618 12.5759 30.8618Z" fill="#E0E0E0"/>
<path fill-rule="evenodd" clip-rule="evenodd" d="M26.2835 30.8618C26.9364 30.8618 27.4331 31.3473 27.4331 32.0002V44.5694C27.4331 45.2223 26.9364 45.7167 26.2835 45.7167C25.6306 45.7167 25.1451 45.2223 25.1451 44.5694V32.0002C25.1451 31.3473 25.6306 30.8618 26.2835 30.8618Z" fill="#E0E0E0"/>
<path fill-rule="evenodd" clip-rule="evenodd" d="M35.4286 0C29.6484 0 24.7782 3.93048 23.317 9.25446C22.7908 9.18788 22.2581 9.14286 21.7143 9.14286H17.1429C10.1981 9.14286 4.57143 14.7695 4.57143 21.7143V32.1161C1.96911 32.6482 0 34.9593 0 37.7143C0 40.8602 2.56834 43.4286 5.71429 43.4286H9.14062V44.5692C9.14062 46.4489 10.6962 48.0045 12.5759 48.0045C14.4556 48.0045 16 46.4489 16 44.5692V32C16 30.1203 14.4556 28.5737 12.5759 28.5737C10.6962 28.5737 9.14062 30.1203 9.14062 32H6.85714V21.7143C6.85714 15.9962 11.4248 11.4286 17.1429 11.4286H21.7143C22.1203 11.4286 22.5181 11.4596 22.9107 11.5045C22.8809 11.8569 22.8571 12.2114 22.8571 12.5714V24C22.8572 24.6312 23.3688 25.1428 24 25.1429H32V32H29.7188C29.7188 30.1203 28.1631 28.5737 26.2835 28.5737C24.4038 28.5737 22.8594 30.1203 22.8594 32V44.5692C22.8594 46.4489 24.4038 48.0045 26.2835 48.0045C28.1631 48.0045 29.7188 46.4489 29.7188 44.5692V43.4308H33.1429C36.2888 43.4308 38.8549 40.858 38.8549 37.7121C38.8549 34.9571 36.8875 32.6477 34.2857 32.1161V25.1429H35.4286C42.358 25.1429 48 19.5009 48 12.5714C48 5.64193 42.358 0 35.4286 0ZM35.4286 2.28571C41.1227 2.28571 45.7143 6.87721 45.7143 12.5714C45.7143 18.2656 41.1227 22.8571 35.4286 22.8571H25.1429V12.5714C25.1429 6.87721 29.7344 2.28571 35.4286 2.28571ZM13.7143 32C13.7143 31.3471 13.2288 30.8616 12.5759 30.8616C11.923 30.8616 11.4286 31.3471 11.4286 32V44.5692C11.4286 45.2221 11.923 45.7165 12.5759 45.7165C13.2288 45.7165 13.7143 45.2221 13.7143 44.5692V32ZM26.2835 30.8616C26.9364 30.8616 27.433 31.3471 27.433 32V44.5692C27.433 45.2221 26.9364 45.7165 26.2835 45.7165C25.6306 45.7165 25.1451 45.2221 25.1451 44.5692V32C25.1451 31.3471 25.6306 30.8616 26.2835 30.8616ZM9.14062 34.2857H5.71429C3.79509 34.2857 2.28571 35.7951 2.28571 37.7143C2.28571 39.6335 3.79509 41.1429 5.71429 41.1429H9.14062V34.2857ZM29.7188 34.2857H33.1429C35.0621 34.2857 36.5692 35.7928 36.5692 37.7121C36.5692 39.6313 35.0621 41.1451 33.1429 41.1451H29.7188V34.2857ZM35.4286 13.7142C36.0597 13.7142 36.5714 13.2026 36.5714 12.5714C36.5714 11.9402 36.0597 11.4286 35.4286 11.4286C34.7974 11.4286 34.2857 11.9402 34.2857 12.5714C34.2857 13.2026 34.7974 13.7142 35.4286 13.7142ZM32 12.5714C32 13.2026 31.4883 13.7142 30.8571 13.7142C30.226 13.7142 29.7143 13.2026 29.7143 12.5714C29.7143 11.9402 30.226 11.4286 30.8571 11.4286C31.4883 11.4286 32 11.9402 32 12.5714ZM40 13.7142C40.6312 13.7142 41.1428 13.2026 41.1429 12.5714C41.1428 11.9402 40.6312 11.4286 40 11.4286C39.3688 11.4286 38.8572 11.9402 38.8571 12.5714C38.8572 13.2026 39.3688 13.7142 40 13.7142Z" fill="black"/>
</svg>
