<svg width="24" height="24" viewBox="0 0 24 24" fill="none" xmlns="http://www.w3.org/2000/svg">
                                    <path fill-rule="evenodd" clip-rule="evenodd" d="M2 7C2 5.34315 3.34315 4 5 4H16C17.6569 4 19 5.34315 19 7V8C20.6569 8 22 9.34315 22 11V13C22 14.6569 20.6569 16 19 16V17C19 18.6569 17.6569 20 16 20H5C3.34315 20 2 18.6569 2 17V7ZM17 7V8H16C14.3431 8 13 9.34315 13 11V13C13 14.6569 14.3431 16 16 16H17V17C17 17.5523 16.5523 18 16 18H5C4.44772 18 4 17.5523 4 17V7C4 6.44772 4.44772 6 5 6H16C16.5523 6 17 6.44772 17 7ZM19 10H16C15.4477 10 15 10.4477 15 11V13C15 13.5523 15.4477 14 16 14H19C19.5523 14 20 13.5523 20 13V11C20 10.4477 19.5523 10 19 10ZM18 13C18.5523 13 19 12.5523 19 12C19 11.4477 18.5523 11 18 11C17.4477 11 17 11.4477 17 12C17 12.5523 17.4477 13 18 13Z" fill="#8F9CA9"/>
                                </svg>