<svg width="48" height="48" viewBox="0 0 48 48" fill="none" xmlns="http://www.w3.org/2000/svg">
<path fill-rule="evenodd" clip-rule="evenodd" d="M4.46735 9.91468L8.64478 0.595073C8.77665 0.267999 9.07878 0.0408267 9.42961 0.00494648C9.78044 -0.0309337 10.1223 0.130377 10.3176 0.423984L16.2963 8.69804C16.5141 8.97591 16.5599 9.3516 16.4153 9.6737C16.2707 9.99579 15.9595 10.2112 15.6072 10.2331L5.45111 11.2786C5.10185 11.3278 4.75409 11.1795 4.54776 10.8934C4.34144 10.6074 4.31048 10.2306 4.46735 9.91468ZM12.5418 7.49091L10.3034 4.39705V4.37804C10.2003 4.24029 10.0308 4.16901 9.86026 4.19169C9.68971 4.21436 9.54473 4.32745 9.48121 4.48735L7.9224 7.97091C7.84758 8.1258 7.86229 8.30902 7.96087 8.44999C8.05944 8.59095 8.22649 8.66764 8.39765 8.65052L12.1996 8.26081C12.3763 8.24966 12.5321 8.14127 12.604 7.97953C12.6758 7.81779 12.6519 7.6295 12.5418 7.49091Z" fill="black"/>
<path fill-rule="evenodd" clip-rule="evenodd" d="M39.4883 8.05625C32.4237 1.00143 21.6347 -0.735459 12.7129 3.74576L14.1006 5.64675C22.4513 1.61888 32.4594 3.60226 38.6429 10.5104C44.8263 17.4186 45.6928 27.5846 40.7677 35.4396C35.8427 43.2946 26.3145 46.9432 17.4026 44.3867C8.49073 41.8302 2.34563 33.6856 2.33347 24.4143V24.2194C2.34118 23.9624 2.24446 23.7133 2.06536 23.5288C1.88627 23.3443 1.64008 23.2403 1.38297 23.2404H0.9505C0.425556 23.2404 4.49541e-06 23.666 4.4954e-06 24.1909V24.4C-0.00580949 33.7586 5.62832 42.1985 14.2737 45.7819C22.919 49.3653 32.8718 47.386 39.4883 40.7675C43.8276 36.4296 46.2655 30.5452 46.2655 24.4095C46.2655 18.2738 43.8276 12.3895 39.4883 8.0515V8.05625ZM29.6222 18.3596C29.1498 18.3653 28.7449 18.0232 28.6717 17.5565C28.277 15.1003 26.1574 13.294 23.6697 13.294C21.182 13.294 19.0624 15.1003 18.6677 17.5565C18.5945 18.0232 18.1896 18.3653 17.7172 18.3596H11.539C11.2649 18.3575 11.0032 18.4737 10.8211 18.6786C10.639 18.8835 10.5542 19.157 10.5885 19.4289L12.2994 30.9537C12.6629 33.8003 15.0851 35.9335 17.9549 35.9343H29.3608C32.2306 35.9335 34.6527 33.8003 35.0162 30.9537L36.7271 19.4289C36.7614 19.157 36.6766 18.8835 36.4945 18.6786C36.3124 18.4737 36.0507 18.3575 35.7766 18.3596H29.6222ZM23.6816 15.5842C24.9964 15.5859 26.1322 16.504 26.4095 17.7893C26.4384 17.9308 26.4014 18.0778 26.309 18.1887C26.2165 18.2997 26.0786 18.3625 25.9343 18.3596H21.4194C21.275 18.3625 21.1371 18.2997 21.0447 18.1887C20.9522 18.0778 20.9153 17.9308 20.9442 17.7893C21.2203 16.4987 22.3617 15.5772 23.6816 15.5794V15.5842ZM14.5426 30.3168C14.7819 32.2165 16.3966 33.6418 18.3113 33.6436H29.0519V33.6531C30.9589 33.6364 32.5585 32.2096 32.7921 30.3168L34.2178 21.1588C34.2357 21.0225 34.1936 20.8851 34.1025 20.7821C34.0114 20.6791 33.8801 20.6206 33.7426 20.6218H13.5921C13.4546 20.6206 13.3233 20.6791 13.2321 20.7821C13.141 20.8851 13.099 21.0225 13.1168 21.1588L14.5426 30.3168ZM23.6008 23.7204C22.9709 23.7204 22.4602 24.2311 22.4602 24.861V29.3236C22.4602 29.9535 22.9709 30.4642 23.6008 30.4642C24.2307 30.4642 24.7414 29.9535 24.7414 29.3236V24.861C24.7414 24.2311 24.2307 23.7204 23.6008 23.7204ZM26.6376 24.861C26.6376 24.2311 27.1483 23.7204 27.7782 23.7204C28.4082 23.7204 28.9188 24.2311 28.9188 24.861V29.3236C28.9188 29.9535 28.4082 30.4642 27.7782 30.4642C27.1483 30.4642 26.6376 29.9535 26.6376 29.3236V24.861ZM19.4186 23.7204C18.7887 23.7204 18.278 24.2311 18.278 24.861V29.3236C18.278 29.9535 18.7887 30.4642 19.4186 30.4642C20.0486 30.4642 20.5592 29.9535 20.5592 29.3236V24.861C20.5592 24.2311 20.0486 23.7204 19.4186 23.7204Z" fill="black"/>
<path fill-rule="evenodd" clip-rule="evenodd" d="M23.6816 15.5843C24.9965 15.5861 26.1323 16.5042 26.4095 17.7895C26.4385 17.931 26.4015 18.0779 26.309 18.1889C26.2166 18.2998 26.0787 18.3627 25.9343 18.3598H21.4194C21.2751 18.3627 21.1372 18.2998 21.0447 18.1889C20.9523 18.0779 20.9153 17.931 20.9442 17.7895C21.2203 16.4988 22.3618 15.5773 23.6816 15.5796V15.5843Z" fill="#E0E0E0"/>
<path fill-rule="evenodd" clip-rule="evenodd" d="M10.3034 4.39702L12.5418 7.49088C12.6519 7.62947 12.6758 7.81776 12.6039 7.97949C12.5321 8.14123 12.3762 8.24963 12.1996 8.26078L8.39762 8.65048C8.22647 8.66761 8.05942 8.59091 7.96084 8.44995C7.86227 8.30899 7.84756 8.12577 7.92238 7.97088L9.48119 4.48732C9.5447 4.32741 9.68968 4.21433 9.86024 4.19165C10.0308 4.16898 10.2003 4.24026 10.3034 4.37801V4.39702Z" fill="#2AA8F2"/>
</svg>
