<svg width="24" height="24" viewBox="0 0 24 24" fill="none" xmlns="http://www.w3.org/2000/svg">
                                    <path d="M19.612 5.38136C19.1722 4.94343 18.65 4.59603 18.0752 4.35901C17.5005 4.12199 16.8844 4 16.2623 4C15.6401 4 15.0241 4.12199 14.4493 4.35901C13.8746 4.59603 13.3524 4.94343 12.9126 5.38136L11.9998 6.2898L11.087 5.38136C10.1986 4.49718 8.99364 4.00046 7.73725 4.00046C6.48085 4.00046 5.27591 4.49718 4.38751 5.38136C3.4991 6.26554 3 7.46475 3 8.71516C3 9.96558 3.4991 11.1648 4.38751 12.049L5.30029 12.9574L11.9998 19.625L18.6992 12.9574L19.612 12.049C20.0521 11.6112 20.4011 11.0915 20.6393 10.5195C20.8774 9.94747 21 9.33435 21 8.71516C21 8.09598 20.8774 7.48286 20.6393 6.91084C20.4011 6.33881 20.0521 5.81909 19.612 5.38136V5.38136Z" stroke="#8F9CA9" stroke-width="2" stroke-linecap="round" stroke-linejoin="round"/>
                                </svg>